HIERARCHY
ROOT Joint1
{
	OFFSET 0.000000 0.000000 0.000000
	CHANNELS 6 Xposition Yposition Zposition Xrotation Yrotation Zrotation
	JOINT Joint2
	{
		OFFSET -0.000000 0.000000 1.456275
		CHANNELS 6 Xposition Yposition Zposition Xrotation Yrotation Zrotation
		JOINT Joint3
		{
			OFFSET -0.000000 0.000002 1.471446
			CHANNELS 6 Xposition Yposition Zposition Xrotation Yrotation Zrotation
			JOINT Joint4
			{
				OFFSET 0.625745 0.000000 0.917755
				CHANNELS 6 Xposition Yposition Zposition Xrotation Yrotation Zrotation
				JOINT Joint5
				{
					OFFSET -0.629534 0.000001 0.940221
					CHANNELS 6 Xposition Yposition Zposition Xrotation Yrotation Zrotation
					JOINT Joint6
					{
						OFFSET -0.000001 0.113772 1.960660
						CHANNELS 6 Xposition Yposition Zposition Xrotation Yrotation Zrotation
						JOINT Joint7
						{
							OFFSET -0.669733 -0.113771 0.388340
							CHANNELS 6 Xposition Yposition Zposition Xrotation Yrotation Zrotation
							End Site
							{
								OFFSET 0.005509 0.005509 0.438980
							}
						}
					}
				}
			}
		}
	}
}
MOTION
Frames: 29
Frame Time: 0.041667
0.000000 0.000000 0.000000 -0.000000 1.019410 34.713897 0.000000 0.000000 1.456275 0.000000 2.181562 0.000001 -0.000000 0.000002 1.471445 -0.000002 -1.133464 -53.361649 0.625745 0.000000 0.917755 0.000005 135.983302 -0.000003 -0.629533 0.000001 0.940221 -0.000000 1.709736 54.300298 -0.000001 0.113772 1.960661 -88.303875 95.661082 0.000015 -0.669733 -0.113771 0.388340 0.257559 2.877752 63.814601 
0.000000 0.000000 0.000000 -0.000000 1.019410 33.868091 -0.000000 -0.000000 1.456275 -0.000000 1.032522 -0.000001 -0.000000 0.000002 1.471445 -0.000002 -1.133464 -52.062410 0.625744 0.000000 0.917755 0.000006 135.959970 -0.000003 -0.629534 0.000001 0.940221 -0.000001 1.709737 52.976884 -0.000001 0.113772 1.960660 -88.303855 95.522695 0.000011 -0.669733 -0.113771 0.388341 0.247193 2.906695 65.547235 
0.000000 0.000000 0.000000 -0.000000 1.019410 32.728627 0.000000 -0.000000 1.456275 -0.000000 -0.515445 0.000001 -0.000000 0.000002 1.471446 -0.000002 -1.133464 -50.312096 0.625744 0.000000 0.917755 0.000002 135.928551 -0.000000 -0.629533 0.000001 0.940221 0.000000 1.709738 51.194010 -0.000001 0.113772 1.960660 -88.303827 95.336259 0.000007 -0.669733 -0.113771 0.388340 0.231852 2.945167 67.881480 
0.000000 0.000000 0.000000 -0.000000 1.019410 31.448759 -0.000000 -0.000000 1.456275 -0.000000 -2.254152 -0.000001 -0.000000 0.000002 1.471445 -0.000002 -1.133464 -48.346118 0.625744 0.000000 0.917755 0.000005 135.893252 -0.000002 -0.629534 0.000001 0.940220 0.000000 1.709738 49.191432 -0.000001 0.113772 1.960661 -88.303841 95.126852 0.000008 -0.669733 -0.113771 0.388340 0.212766 2.987595 70.503446 
0.000000 0.000000 0.000000 -0.000000 1.019410 30.215780 -0.000000 -0.000000 1.456275 0.000000 -3.929163 0.000003 -0.000000 0.000002 1.471446 -0.000002 -1.133463 -46.452158 0.625745 0.000000 0.917755 0.000006 135.859252 -0.000001 -0.629533 0.000001 0.940221 0.000002 1.709734 47.262232 -0.000002 0.113772 1.960660 -88.303841 94.925122 -0.000012 -0.669733 -0.113771 0.388340 0.192556 3.027602 73.029489 
0.000000 0.000000 0.000000 -0.000000 1.019410 29.029438 -0.000000 0.000000 1.456275 0.000000 -5.540827 0.000001 -0.000000 0.000002 1.471446 -0.000001 -1.133464 -44.629822 0.625744 0.000000 0.917755 0.000003 135.826549 -0.000000 -0.629534 0.000001 0.940221 0.000000 1.709739 45.405991 -0.000001 0.113772 1.960661 -88.303834 94.731008 -0.000002 -0.669733 -0.113771 0.388341 0.171465 3.065216 75.460087 
0.000000 0.000000 0.000000 -0.000000 1.019410 27.842836 -0.000000 -0.000000 1.456275 -0.000000 -7.152838 0.000000 -0.000000 0.000002 1.471446 -0.000001 -1.133463 -42.807101 0.625745 0.000000 0.917755 0.000004 135.793819 -0.000002 -0.629534 0.000001 0.940221 -0.000001 1.709736 43.549341 -0.000001 0.113772 1.960660 -88.303834 94.536860 0.000003 -0.669733 -0.113771 0.388340 0.148791 3.101918 77.891307 
0.000000 0.000000 0.000000 -0.000000 1.019410 26.610113 -0.000000 -0.000000 1.456275 0.000000 -8.827501 0.000001 -0.000000 0.000002 1.471445 -0.000001 -1.133463 -40.913526 0.625744 0.000000 0.917755 0.000003 135.759832 -0.000002 -0.629534 0.000001 0.940221 -0.000001 1.709736 41.620547 -0.000001 0.113772 1.960660 -88.303793 94.335158 0.000015 -0.669733 -0.113771 0.388340 0.123604 3.138992 80.417117 
0.000000 0.000000 0.000000 -0.000000 1.019410 25.331526 -0.000000 0.000000 1.456275 0.000000 -10.564467 0.000000 -0.000000 0.000002 1.471446 -0.000001 -1.133465 -38.949519 0.625744 0.000000 0.917755 0.000003 135.724574 -0.000002 -0.629533 0.000001 0.940220 -0.000001 1.709740 39.619988 -0.000001 0.113772 1.960660 -88.303827 94.125963 0.000027 -0.669733 -0.113771 0.388340 0.095773 3.176234 83.037021 
0.000000 0.000000 0.000000 -0.000000 1.019410 24.190785 -0.000000 -0.000000 1.456275 -0.000000 -12.114177 0.000002 -0.000000 0.000002 1.471446 -0.000001 -1.133463 -37.197238 0.625744 0.000000 0.917755 0.000004 135.693128 -0.000001 -0.629534 0.000001 0.940220 -0.000001 1.709738 37.835099 -0.000001 0.113772 1.960660 -88.303841 93.939321 0.000028 -0.669733 -0.113771 0.388341 0.069528 3.208360 85.374571 
0.000000 0.000000 0.000000 -0.000000 1.019410 23.338936 -0.000000 0.000000 1.456275 0.000000 -13.271419 -0.000001 -0.000000 0.000002 1.471445 -0.000001 -1.133462 -35.888724 0.625745 0.000000 0.917755 0.000004 135.669646 -0.000002 -0.629534 0.000001 0.940220 -0.000001 1.709741 36.502235 -0.000001 0.113772 1.960660 -88.303875 93.799951 0.000042 -0.669733 -0.113771 0.388340 0.049080 3.231632 87.120190 
0.000000 0.000000 0.000000 -0.000000 1.019410 22.612991 -0.000000 0.000000 1.456275 -0.000000 -14.257617 -0.000000 -0.000000 0.000002 1.471445 -0.000001 -1.133462 -34.773617 0.625745 0.000000 0.917755 0.000004 135.649620 -0.000002 -0.629534 0.000001 0.940221 -0.000001 1.709738 35.366375 -0.000001 0.113772 1.960660 -88.303862 93.681167 -0.000003 -0.669733 -0.113771 0.388340 0.031107 3.250973 88.607832 
0.000000 0.000000 0.000000 -0.000000 1.019410 21.771457 -0.000000 0.000000 1.456275 0.000001 -15.400851 0.000001 -0.000000 0.000002 1.471446 -0.000001 -1.133463 -33.480942 0.625745 0.000000 0.917755 0.000003 135.626411 -0.000002 -0.629534 0.000001 0.940221 -0.000001 1.709736 34.049651 -0.000001 0.113772 1.960660 -88.303841 93.543477 -0.000031 -0.669733 -0.113771 0.388341 0.009645 3.272801 90.332400 
0.000000 0.000000 0.000000 -0.000000 1.019410 20.644896 -0.000000 -0.000000 1.456275 0.000000 -16.931291 0.000000 -0.000000 0.000002 1.471446 -0.000001 -1.133463 -31.750445 0.625744 0.000000 0.917755 0.000003 135.595347 0.000001 -0.629534 0.000001 0.940221 0.000000 1.709739 32.286953 -0.000001 0.113772 1.960661 -88.303814 93.359151 -0.000025 -0.669733 -0.113771 0.388341 -0.020095 3.300986 92.641148 
0.000000 0.000000 0.000000 -0.000000 1.019410 19.352127 -0.000000 0.000000 1.456275 0.000000 -18.687524 0.000001 -0.000000 0.000002 1.471445 -0.000001 -1.133462 -29.764646 0.625745 0.000000 0.917755 0.000003 135.559721 -0.000001 -0.629534 0.000001 0.940220 -0.000001 1.709737 30.264206 -0.000001 0.113772 1.960660 -88.303814 93.147634 0.000032 -0.669733 -0.113771 0.388340 -0.055588 3.331829 95.290612 
0.000000 0.000000 0.000000 -0.000000 1.019410 18.071714 -0.000000 0.000000 1.456275 -0.000000 -20.426980 0.000000 -0.000000 0.000002 1.471446 -0.000000 -1.133460 -27.797815 0.625745 0.000000 0.917755 0.000004 135.524395 -0.000001 -0.629534 0.000001 0.940221 -0.000001 1.709737 28.260768 -0.000001 0.113772 1.960661 -88.303868 92.938138 0.000059 -0.669733 -0.113771 0.388340 -0.092123 3.360729 97.914860 
0.000000 0.000000 0.000000 -0.000000 1.019410 16.932804 -0.000000 0.000000 1.456275 0.000000 -21.974199 0.000000 -0.000000 0.000002 1.471445 -0.000000 -1.133461 -26.048357 0.625744 0.000000 0.917755 0.000005 135.492990 -0.000002 -0.629534 0.000001 0.940221 0.000000 1.709738 26.478755 -0.000001 0.113772 1.960660 -88.303848 92.751790 0.000067 -0.669733 -0.113771 0.388340 -0.125701 3.385009 100.249166 
0.000000 0.000000 0.000000 -0.000000 1.019410 16.014446 -0.000000 0.000000 1.456275 0.000000 -23.221795 0.000001 -0.000000 0.000002 1.471445 -0.000000 -1.133461 -24.637684 0.625744 0.000000 0.917755 0.000002 135.467677 -0.000002 -0.629534 0.000001 0.940221 -0.000000 1.709736 25.041835 -0.000001 0.113772 1.960660 -88.303862 92.601533 0.000024 -0.669733 -0.113771 0.388340 -0.153482 3.403580 102.131484 
0.000000 0.000000 0.000000 -0.000000 1.019410 15.244607 -0.000000 -0.000000 1.456275 0.000000 -24.267626 -0.000001 -0.000001 0.000002 1.471446 0.000000 -1.133464 -23.455145 0.625745 0.000000 0.917755 0.000004 135.446435 -0.000000 -0.629534 0.000001 0.940220 -0.000001 1.709736 23.837288 -0.000001 0.113772 1.960660 -88.303848 92.475564 -0.000004 -0.669733 -0.113771 0.388340 -0.177230 3.418443 103.709422 
0.000000 0.000000 0.000000 -0.000000 1.019410 14.513476 -0.000000 0.000000 1.456275 0.000000 -25.260874 0.000000 -0.000000 0.000002 1.471445 -0.000001 -1.133463 -22.332065 0.625745 0.000000 0.917755 0.000004 135.426286 -0.000003 -0.629534 0.000001 0.940220 -0.000000 1.709735 22.693314 -0.000001 0.113772 1.960660 -88.303827 92.355946 0.000022 -0.669733 -0.113771 0.388340 -0.200153 3.431943 105.208047 
0.000000 0.000000 0.000000 -0.000000 1.019410 13.734944 -0.000000 0.000000 1.456275 0.000000 -26.318512 0.000000 -0.000001 0.000002 1.471445 -0.000000 -1.133461 -21.136174 0.625745 0.000000 0.917755 0.000003 135.404812 -0.000001 -0.629534 0.000001 0.940221 -0.000000 1.709738 21.475170 -0.000001 0.113772 1.960661 -88.303827 92.228563 0.000070 -0.669733 -0.113771 0.388339 -0.224948 3.445656 106.803852 
0.000000 0.000000 0.000000 -0.000000 1.019410 12.917706 -0.000000 0.000000 1.456275 -0.000000 -27.428742 -0.000001 -0.000000 0.000002 1.471446 0.000000 -1.133460 -19.880823 0.625745 0.000000 0.917755 0.000003 135.382272 -0.000001 -0.629533 0.000001 0.940221 -0.000000 1.709736 20.196458 -0.000001 0.113772 1.960661 -88.303821 92.094849 0.000080 -0.669733 -0.113771 0.388340 -0.251376 3.459305 108.479038 
0.000000 0.000000 0.000000 -0.000000 1.019410 12.094150 -0.000000 0.000000 1.456275 0.000000 -28.547549 -0.000000 -0.000000 0.000002 1.471446 0.000000 -1.133464 -18.615769 0.625744 0.000000 0.917755 0.000003 135.359569 -0.000001 -0.629534 0.000001 0.940221 -0.000000 1.709736 18.907859 -0.000001 0.113772 1.960661 -88.303773 91.960103 -0.000036 -0.669734 -0.113771 0.388340 -0.278397 3.472275 110.167202 
0.000000 0.000000 0.000000 -0.000000 1.019410 11.287974 -0.000000 0.000000 1.456275 0.000000 -29.642744 -0.000001 -0.000000 0.000002 1.471446 -0.000000 -1.133461 -17.377417 0.625744 0.000000 0.917755 0.000004 135.337330 -0.000002 -0.629534 0.000001 0.940221 0.000000 1.709739 17.646458 -0.000001 0.113772 1.960661 -88.303793 91.828198 0.000038 -0.669733 -0.113771 0.388340 -0.305213 3.484195 111.819773 
0.000000 0.000000 0.000000 -0.000000 1.019410 10.488117 -0.000000 0.000000 1.456275 0.000000 -30.729352 -0.000001 -0.000000 0.000002 1.471445 -0.000000 -1.133462 -16.148767 0.625745 0.000000 0.917755 0.000003 135.315282 -0.000001 -0.629534 0.000001 0.940221 -0.000000 1.709736 16.394950 -0.000001 0.113772 1.960661 -88.303848 91.697325 0.000088 -0.669733 -0.113771 0.388340 -0.332146 3.495256 113.459414 
0.000000 0.000000 0.000000 -0.000000 1.019410 9.674822 -0.000000 0.000000 1.456275 0.000000 -31.834224 -0.000001 -0.000000 0.000002 1.471445 -0.000000 -1.133462 -14.899479 0.625745 0.000000 0.917755 0.000003 135.292865 -0.000002 -0.629534 0.000001 0.940220 -0.000000 1.709737 15.122414 -0.000001 0.113772 1.960660 -88.303773 91.564259 0.000142 -0.669733 -0.113771 0.388340 -0.359846 3.505706 115.126622 
0.000000 0.000000 0.000000 -0.000000 1.019410 8.839400 -0.000000 -0.000000 1.456275 0.000001 -32.969152 0.000000 -0.000000 0.000002 1.471446 0.000000 -1.133460 -13.616200 0.625745 0.000000 0.917755 0.000003 135.269834 -0.000001 -0.629534 0.000001 0.940221 0.000000 1.709738 13.815255 -0.000001 0.113772 1.960660 -88.303834 91.427567 0.000091 -0.669733 -0.113771 0.388340 -0.388607 3.515600 116.839210 
0.000000 0.000000 0.000000 -0.000000 1.019410 8.017416 -0.000000 0.000000 1.456275 -0.000000 -34.085823 -0.000000 -0.000000 0.000002 1.471445 0.000000 -1.133461 -12.353558 0.625744 0.000000 0.917754 0.000003 135.247158 -0.000001 -0.629534 0.000001 0.940221 -0.000000 1.709735 12.529121 -0.000000 0.113772 1.960660 -88.303800 91.293073 0.000165 -0.669733 -0.113771 0.388340 -0.417178 3.524493 118.524273 
0.000000 0.000000 0.000000 -0.000000 1.019410 7.255497 -0.000000 0.000000 1.456275 -0.000000 -35.120898 -0.000001 -0.000000 0.000002 1.471446 0.000001 -1.133458 -11.183184 0.625745 0.000000 0.917755 0.000004 135.226148 -0.000001 -0.629534 0.000001 0.940221 0.000000 1.709737 11.336969 -0.000001 0.113772 1.960661 -88.303766 91.168409 0.000143 -0.669733 -0.113771 0.388340 -0.443887 3.531983 120.086228 
